<?xml version="1.0" encoding="utf-8"?>
<!-- Generator: Adobe Illustrator 26.5.0, SVG Export Plug-In . SVG Version: 6.00 Build 0)  -->
<svg version="1.0" id="Layer_1" xmlns="http://www.w3.org/2000/svg" xmlns:xlink="http://www.w3.org/1999/xlink" x="0px" y="0px"
	 viewBox="0 0 612 792" style="enable-background:new 0 0 612 792;" xml:space="preserve">
<style type="text/css">
	.st0{fill:#FFFFFF;}
	.st1{fill:url(#SVGID_1_);}
	.st2{fill:url(#SVGID_00000015351745009639547850000009973962159458915985_);}
	.st3{fill:url(#SVGID_00000130634325508004912500000013518442403029538961_);}
	.st4{fill:url(#SVGID_00000183231331860204503640000001021154329238784919_);}
	.st5{fill:url(#SVGID_00000070093464929060880030000002019667290918679970_);}
	.st6{fill:url(#SVGID_00000130618590669494299200000002160749684014559630_);}
	.st7{fill:url(#SVGID_00000125587727972733957490000008828422657589687231_);}
</style>
<g id="Drizzle">
	<path class="st0" d="M318.3,402.3c5.9,0,10.7-4.8,10.7-10.7s-4.8-10.7-10.7-10.7c0,0-0.1,0-0.1,0c-0.9-8.5-8.2-15.1-16.9-15.1
		c-6.9,0-12.9,4.1-15.5,10c-0.1,0-0.2,0-0.3,0c-7.3,0-13.2,5.9-13.2,13.2c0,7.3,5.9,13.2,13.2,13.2"/>
	<linearGradient id="SVGID_1_" gradientUnits="userSpaceOnUse" x1="311.0818" y1="404.8077" x2="331.4068" y2="384.4826">
		<stop  offset="0" style="stop-color:#D0E8F8"/>
		<stop  offset="1" style="stop-color:#E1EEF9"/>
	</linearGradient>
	<path class="st1" d="M332.6,402.3c3.7,0,6.7-3,6.7-6.7c0-3.7-3-6.7-6.7-6.7c0,0,0,0-0.1,0c-0.6-5.3-5.1-9.5-10.6-9.5
		c-4.3,0-8.1,2.6-9.8,6.3c-0.1,0-0.1,0-0.2,0c-4.6,0-8.3,3.7-8.3,8.3c0,4.6,3.7,8.3,8.3,8.3"/>
	
		<linearGradient id="SVGID_00000099661578196182295650000015310932946911738010_" gradientUnits="userSpaceOnUse" x1="279.9793" y1="414.0967" x2="286.8669" y2="414.0967">
		<stop  offset="0" style="stop-color:#00AEEF"/>
		<stop  offset="1" style="stop-color:#00BDF2"/>
	</linearGradient>
	<path style="fill:url(#SVGID_00000099661578196182295650000015310932946911738010_);" d="M282,418.6c-0.3,0-0.7-0.1-1-0.3
		c-1-0.6-1.3-1.8-0.7-2.7l2.9-5c0.6-1,1.8-1.3,2.7-0.7c1,0.6,1.3,1.8,0.7,2.7l-2.9,5C283.3,418.2,282.7,418.6,282,418.6z"/>
	
		<linearGradient id="SVGID_00000100382307962654880800000016867398739744668299_" gradientUnits="userSpaceOnUse" x1="296.0911" y1="414.0967" x2="302.9788" y2="414.0967">
		<stop  offset="0" style="stop-color:#00AEEF"/>
		<stop  offset="1" style="stop-color:#00BDF2"/>
	</linearGradient>
	<path style="fill:url(#SVGID_00000100382307962654880800000016867398739744668299_);" d="M298.1,418.6c-0.3,0-0.7-0.1-1-0.3
		c-1-0.6-1.3-1.8-0.7-2.7l2.9-5c0.6-1,1.8-1.3,2.7-0.7c1,0.6,1.3,1.8,0.7,2.7l-2.9,5C299.5,418.2,298.8,418.6,298.1,418.6z"/>
	
		<linearGradient id="SVGID_00000086677661183428342000000015802728984182548892_" gradientUnits="userSpaceOnUse" x1="312.2029" y1="414.0967" x2="319.0906" y2="414.0967">
		<stop  offset="0" style="stop-color:#00AEEF"/>
		<stop  offset="1" style="stop-color:#00BDF2"/>
	</linearGradient>
	<path style="fill:url(#SVGID_00000086677661183428342000000015802728984182548892_);" d="M314.2,418.6c-0.3,0-0.7-0.1-1-0.3
		c-1-0.6-1.3-1.8-0.7-2.7l2.9-5c0.6-1,1.8-1.3,2.7-0.7c1,0.6,1.3,1.8,0.7,2.7l-2.9,5C315.6,418.2,314.9,418.6,314.2,418.6z"/>
	
		<linearGradient id="SVGID_00000033359217186570095990000016204858457433866902_" gradientUnits="userSpaceOnUse" x1="284.9793" y1="421.2767" x2="291.8669" y2="421.2767">
		<stop  offset="0" style="stop-color:#00AEEF"/>
		<stop  offset="1" style="stop-color:#00BDF2"/>
	</linearGradient>
	<path style="fill:url(#SVGID_00000033359217186570095990000016204858457433866902_);" d="M287,425.8c-0.3,0-0.7-0.1-1-0.3
		c-1-0.6-1.3-1.8-0.7-2.7l2.9-5c0.6-1,1.8-1.3,2.7-0.7c1,0.6,1.3,1.8,0.7,2.7l-2.9,5C288.3,425.4,287.7,425.8,287,425.8z"/>
	
		<linearGradient id="SVGID_00000052070023614059767890000007308685233471259786_" gradientUnits="userSpaceOnUse" x1="301.5916" y1="421.2767" x2="308.4792" y2="421.2767">
		<stop  offset="0" style="stop-color:#00AEEF"/>
		<stop  offset="1" style="stop-color:#00BDF2"/>
	</linearGradient>
	<path style="fill:url(#SVGID_00000052070023614059767890000007308685233471259786_);" d="M303.6,425.8c-0.3,0-0.7-0.1-1-0.3
		c-1-0.6-1.3-1.8-0.7-2.7l2.9-5c0.6-1,1.8-1.3,2.7-0.7c1,0.6,1.3,1.8,0.7,2.7l-2.9,5C305,425.4,304.3,425.8,303.6,425.8z"/>
	
		<linearGradient id="SVGID_00000023262872413746844590000007278114005271777162_" gradientUnits="userSpaceOnUse" x1="318.2029" y1="421.2767" x2="325.0906" y2="421.2767">
		<stop  offset="0" style="stop-color:#00AEEF"/>
		<stop  offset="1" style="stop-color:#00BDF2"/>
	</linearGradient>
	<path style="fill:url(#SVGID_00000023262872413746844590000007278114005271777162_);" d="M320.2,425.8c-0.3,0-0.7-0.1-1-0.3
		c-1-0.6-1.3-1.8-0.7-2.7l2.9-5c0.6-1,1.8-1.3,2.7-0.7c1,0.6,1.3,1.8,0.7,2.7l-2.9,5C321.6,425.4,320.9,425.8,320.2,425.8z"/>
</g>
</svg>
